<?xml version="1.0" encoding="utf-8"?>
<!-- Generator: Adobe Illustrator 16.0.3, SVG Export Plug-In . SVG Version: 6.00 Build 0)  -->
<!DOCTYPE svg PUBLIC "-//W3C//DTD SVG 1.1//EN" "http://www.w3.org/Graphics/SVG/1.1/DTD/svg11.dtd">
<svg version="1.1" id="图层_1" xmlns="http://www.w3.org/2000/svg" xmlns:xlink="http://www.w3.org/1999/xlink" x="0px" y="0px"
	 width="72.523px" height="72.523px" viewBox="0 0 72.523 72.523" enable-background="new 0 0 72.523 72.523" xml:space="preserve">
<g>
	<path fill="#FFFFFF" d="M55.092,57.092c-0.512,0-1.023-0.195-1.414-0.586l-37.66-37.66c-0.781-0.781-0.781-2.047,0-2.828
		c0.78-0.781,2.048-0.781,2.828,0l37.66,37.66c0.781,0.781,0.781,2.047,0,2.828C56.115,56.896,55.604,57.092,55.092,57.092z"/>
</g>
<g>
	<path fill="#FFFFFF" d="M17.432,57.092c-0.512,0-1.024-0.195-1.414-0.586c-0.781-0.781-0.781-2.047,0-2.828l37.66-37.66
		c0.781-0.781,2.047-0.781,2.828,0c0.781,0.781,0.781,2.047,0,2.828l-37.66,37.66C18.456,56.896,17.943,57.092,17.432,57.092z"/>
</g>
</svg>
